<?xml version="1.0" standalone="no"?>
<!DOCTYPE svg PUBLIC "-//W3C//DTD SVG 20010904//EN"
 "http://www.w3.org/TR/2001/REC-SVG-20010904/DTD/svg10.dtd">
<svg version="1.0" xmlns="http://www.w3.org/2000/svg"
 width="1428.000000pt" height="1428.000000pt" viewBox="0 0 1428.000000 1428.000000"
 preserveAspectRatio="xMidYMid meet">
<metadata>
Created by potrace 1.14, written by Peter Selinger 2001-2017
</metadata>
<g transform="translate(0.000000,1428.000000) scale(0.100000,-0.100000)"
fill="#000000" stroke="none">
<path d="M6750 14265 c-293 -18 -508 -40 -720 -75 -30 -5 -86 -14 -125 -20
-38 -6 -88 -15 -110 -20 -22 -4 -67 -14 -100 -21 -131 -26 -286 -62 -390 -90
-128 -35 -150 -41 -175 -49 -14 -4 -72 -22 -130 -40 -416 -127 -888 -328
-1293 -552 -1444 -795 -2588 -2088 -3199 -3613 -54 -134 -180 -501 -218 -635
-7 -25 -17 -58 -21 -75 -42 -145 -60 -221 -119 -490 -5 -22 -14 -69 -20 -105
-6 -36 -15 -85 -20 -110 -8 -42 -18 -108 -40 -252 -5 -35 -14 -108 -19 -163
-6 -55 -15 -143 -20 -195 -26 -246 -35 -617 -22 -882 6 -145 16 -306 22 -358
29 -290 32 -315 60 -493 15 -97 48 -283 59 -332 5 -22 18 -83 30 -135 34 -154
59 -253 111 -435 37 -129 166 -504 217 -630 88 -219 252 -566 368 -777 797
-1452 2087 -2596 3619 -3210 126 -51 501 -180 630 -217 99 -28 241 -67 295
-79 73 -18 211 -48 275 -61 33 -7 78 -16 100 -21 233 -50 557 -88 1020 -121
148 -10 576 -7 745 6 377 28 718 71 925 115 22 5 67 14 100 21 131 26 286 62
390 90 128 35 150 41 175 49 14 4 72 22 130 40 498 152 1030 390 1505 673
1007 600 1874 1463 2477 2467 222 371 420 777 560 1155 32 87 147 433 168 505
7 25 17 59 21 75 63 219 137 554 169 762 71 458 94 746 94 1173 0 283 -8 462
-34 715 -19 196 -54 446 -85 603 -53 272 -95 448 -166 697 -37 129 -166 504
-217 630 -645 1610 -1882 2957 -3428 3733 -303 152 -549 257 -874 370 -47 17
-132 44 -190 62 -58 18 -116 36 -130 40 -25 8 -47 14 -175 49 -104 28 -259 64
-390 90 -33 7 -78 17 -100 21 -77 18 -372 62 -525 79 -421 48 -806 60 -1210
36z m3335 -2135 c-3 -5 -2 -10 4 -10 16 0 38 -50 45 -105 11 -77 15 -84 59
-113 40 -25 59 -34 143 -66 20 -7 39 -17 43 -23 3 -5 13 -12 21 -15 12 -4 14
-21 12 -85 l-3 -80 -27 4 c-106 16 -218 61 -278 111 -39 33 -44 54 -43 218 1
162 3 174 20 174 6 0 7 -4 4 -10z m-211 -159 c4 -5 9 -31 13 -58 14 -110 90
-207 203 -260 58 -27 714 -277 1490 -568 157 -59 300 -114 318 -122 40 -19 52
-42 81 -152 19 -69 20 -86 9 -96 -7 -7 -89 -38 -183 -70 -769 -260 -1655 -571
-1750 -614 -73 -33 -133 -84 -152 -128 -7 -18 -16 -67 -20 -108 -6 -75 -7 -76
-32 -73 l-26 3 -3 507 c-2 499 -2 507 18 513 31 10 38 0 45 -67 8 -81 31 -151
55 -173 42 -38 82 -31 330 54 135 47 243 89 255 101 19 20 20 32 20 345 0 311
-1 325 -20 344 -37 37 -398 161 -466 161 -102 0 -156 -74 -174 -238 -7 -67
-14 -77 -45 -67 -20 6 -20 16 -20 385 0 293 3 379 13 383 20 9 35 8 41 -2z
m291 -567 c60 -10 163 -51 206 -82 l38 -27 3 -294 3 -294 -90 -42 c-98 -45
-183 -69 -230 -63 l-30 3 -1 148 c-2 122 1 147 13 147 8 0 12 -4 9 -9 -3 -5 0
-11 7 -14 7 -3 19 -24 27 -46 10 -32 17 -40 29 -35 9 3 39 13 66 21 85 25 80
13 83 186 3 178 10 163 -96 196 l-57 18 -11 -56 c-11 -61 -29 -101 -45 -101
-6 0 -7 -4 -4 -10 3 -5 -1 -10 -9 -10 -13 0 -15 26 -14 183 1 100 3 186 6 190
2 5 16 6 30 3 15 -3 45 -8 67 -12z m1604 -105 c20 -7 52 -20 72 -30 20 -11 44
-19 53 -19 9 0 16 -6 17 -12 2 -40 -3 -173 -7 -177 -12 -13 -76 0 -123 23 -83
43 -91 55 -91 139 0 41 3 77 7 80 9 10 32 9 72 -4z m-4579 -519 c112 -32 186
-76 271 -160 94 -94 143 -184 170 -313 54 -262 -13 -464 -174 -526 -35 -13
-80 -15 -253 -13 -229 3 -287 -5 -424 -54 -307 -109 -449 -72 -559 148 -54
109 -71 178 -78 318 -7 138 5 203 53 299 47 95 128 168 247 225 98 48 224 86
285 87 20 0 46 5 57 10 11 5 90 7 175 5 120 -3 172 -9 230 -26z m4718 -275 c2
-54 -1 -85 -10 -96 -7 -8 -47 -26 -88 -38 -41 -13 -82 -27 -92 -32 -11 -5 -18
-3 -22 7 -10 26 -7 144 4 165 19 34 122 79 175 76 l30 -2 3 -80z m-1496 -517
c3 -81 -11 -118 -46 -118 -11 0 -29 -7 -40 -15 -10 -8 -49 -24 -86 -35 -68
-21 -110 -44 -99 -54 3 -3 29 1 57 9 57 17 189 36 206 29 7 -3 10 -32 9 -81
l-2 -77 -83 -27 c-90 -31 -197 -59 -238 -64 l-26 -4 -2 178 c-1 190 -3 183 51
228 49 40 207 97 284 102 8 1 13 -23 15 -71z m368 -457 c216 -62 387 -213 450
-395 55 -160 26 -366 -73 -524 -15 -23 -27 -51 -27 -61 0 -39 29 -43 319 -39
243 3 280 5 304 20 34 23 48 50 62 118 9 43 16 56 31 58 30 4 38 -22 89 -271
48 -238 52 -266 33 -285 -9 -9 -238 -12 -970 -12 -1054 0 -1015 2 -1052 -61
-10 -16 -21 -60 -24 -96 -8 -73 -29 -101 -56 -73 -12 13 -47 257 -72 500 -7
76 -2 83 66 97 60 11 61 30 11 124 -62 116 -84 211 -78 339 5 117 26 182 89
280 95 148 296 266 513 301 84 13 312 2 385 -20z m-2676 -370 c33 -11 63 -24
68 -29 4 -4 -18 -52 -49 -105 -49 -81 -65 -100 -103 -119 -31 -16 -45 -29 -45
-43 0 -16 6 -19 25 -17 l26 3 -4 -96 c-3 -63 -1 -95 6 -95 6 0 14 5 17 10 15
24 25 6 25 -43 0 -114 61 -268 146 -367 l46 -55 -33 -13 c-32 -13 -33 -15 -12
-23 28 -10 260 6 408 30 66 11 161 25 210 32 108 14 135 23 135 45 0 13 -7 15
-37 11 -21 -3 -49 -8 -61 -12 l-24 -8 27 53 c64 127 81 233 59 371 -8 49 -19
101 -25 115 -5 15 -7 29 -4 32 9 9 113 -66 140 -103 57 -74 71 -234 32 -348
-13 -37 -32 -76 -42 -87 -16 -18 -17 -23 -5 -30 8 -6 18 -10 23 -10 4 0 7 -4
7 -10 0 -5 -18 -10 -39 -10 -22 0 -43 -4 -46 -10 -3 -5 3 -10 14 -10 13 0 21
-7 21 -16 0 -14 -3 -14 -15 -4 -10 8 -29 10 -58 6 -23 -4 -48 -8 -56 -8 -8 -1
-16 -10 -19 -20 -3 -13 -13 -18 -31 -17 -58 4 -71 0 -71 -25 0 -13 10 -31 23
-40 15 -11 10 -10 -19 3 -52 25 -114 19 -114 -10 0 -16 -8 -19 -44 -19 -49 0
-71 -18 -61 -50 3 -11 9 -20 13 -20 4 -1 52 -7 107 -14 55 -8 102 -10 105 -6
7 11 71 14 93 5 9 -4 33 -4 52 -1 47 9 161 -12 201 -38 33 -21 44 -47 75 -171
6 -22 15 -54 20 -71 5 -17 9 -42 9 -55 0 -14 4 -29 8 -34 5 -6 14 -44 21 -85
7 -41 16 -88 21 -105 14 -47 22 -86 27 -139 2 -27 8 -57 14 -67 5 -10 9 -33 9
-51 0 -19 4 -38 9 -44 5 -5 12 -36 15 -69 12 -120 17 -160 23 -185 19 -77 19
-274 0 -327 -27 -74 -140 -235 -209 -298 l-66 -60 -128 -24 c-120 -22 -238
-49 -309 -71 -16 -5 -61 -19 -100 -31 -38 -12 -74 -25 -80 -30 -5 -5 -14 -9
-21 -9 -6 0 -38 -12 -70 -27 -33 -15 -63 -28 -69 -29 -11 -2 -82 -32 -171 -74
-51 -24 -80 -30 -170 -35 -60 -4 -620 -8 -1244 -9 -1276 -2 -1169 4 -1274 -78
-27 -21 -53 -38 -58 -38 -6 0 -26 13 -44 30 -68 59 -109 73 -242 80 -91 5
-127 11 -139 22 -14 14 -6 16 88 14 93 -1 110 2 159 25 30 14 68 39 84 55 39
39 101 135 122 190 22 57 10 73 -35 49 -28 -14 -40 -14 -89 -4 -50 10 -64 19
-118 74 -107 109 -311 431 -374 590 -4 11 -17 44 -29 73 -11 28 -19 52 -16 52
2 0 37 -29 77 -65 114 -102 249 -166 348 -166 75 -1 112 14 108 44 -3 19 -11
23 -61 28 -35 4 -70 15 -85 26 -68 50 -178 355 -197 546 l-7 68 36 -19 c39
-21 27 -22 246 18 162 29 170 31 170 41 0 5 8 4 18 -2 22 -14 98 1 95 18 -1 5
15 10 35 11 20 1 38 6 40 12 2 5 11 10 20 10 15 0 15 2 2 10 -29 18 20 24 56
6 42 -19 55 -20 78 -3 23 17 12 43 -27 64 -78 40 -137 39 -137 -3 0 -33 -13
-30 -45 12 -23 30 -32 35 -63 32 -34 -3 -37 -5 -35 -32 l2 -29 -28 27 c-35 34
-100 46 -120 23 -11 -13 -6 -23 31 -64 l43 -48 -59 52 c-75 66 -113 85 -152
74 -22 -6 -28 -13 -27 -29 3 -23 -3 -25 -50 -22 -15 1 -39 -5 -52 -14 -13 -9
-34 -16 -46 -16 -18 0 -19 -2 -9 -15 14 -17 3 -20 -19 -6 -11 7 -16 43 -21
133 -4 67 -6 124 -4 126 1 2 21 -13 43 -34 23 -20 44 -34 48 -30 3 3 -13 47
-37 96 -48 103 -49 127 -10 252 16 53 33 80 76 128 51 55 143 130 158 130 4 0
4 -37 0 -82 -6 -87 13 -236 38 -294 29 -65 81 -144 125 -190 l46 -49 -29 -5
c-16 -3 -30 -12 -32 -21 -3 -15 8 -16 90 -13 51 2 109 6 128 8 223 31 342 53
440 81 25 7 64 18 88 24 26 7 42 18 42 27 0 11 -6 13 -20 9 -27 -8 -26 14 1
67 58 113 73 266 41 393 -12 43 -19 81 -16 84 2 2 15 -5 27 -17 13 -12 27 -19
30 -15 10 9 8 86 -2 102 -7 10 -5 18 5 26 14 10 10 45 -5 45 -3 0 -19 12 -36
26 l-30 25 38 -6 c29 -5 39 -2 44 11 9 23 -10 31 -94 39 -65 6 -92 16 -223 81
-83 41 -154 74 -159 74 -5 0 -13 6 -19 13 -9 10 24 24 156 66 258 83 274 86
352 62 82 -25 325 -94 407 -116 61 -15 64 -15 139 9 89 29 124 50 124 73 0 10
17 0 51 -32 57 -53 61 -53 157 -7 52 25 58 31 68 71 6 25 15 46 20 48 6 2 25
-13 43 -32 48 -53 56 -43 53 60 -2 80 -1 87 15 79 10 -4 54 -16 98 -27 44 -10
135 -37 203 -58 199 -64 318 -53 386 36 36 46 33 61 -11 68 -34 6 -93 50 -93
70 0 16 152 1 214 -22z m600 -17 c9 -8 16 -21 16 -29 0 -17 27 -27 36 -13 5 7
12 5 21 -7 7 -11 13 -21 13 -24 0 -3 -71 -7 -157 -9 -165 -3 -300 -23 -405
-60 -32 -11 -58 -17 -58 -12 0 10 65 90 87 107 8 6 20 10 26 7 7 -2 56 -11
110 -19 72 -10 118 -12 178 -5 94 11 118 24 94 50 -8 9 -15 20 -15 23 0 13 39
7 54 -9z m241 -9 c14 -3 25 -20 37 -55 18 -56 21 -55 -67 -38 l-63 11 -5 41
c-2 23 -2 45 0 49 4 7 39 4 98 -8z m84 -181 c6 -15 10 -29 7 -31 -5 -5 -76 45
-76 53 0 2 13 4 28 4 21 0 32 -7 41 -26z m2879 -64 c4 -82 -3 -107 -31 -115
-101 -27 -117 -39 -131 -100 -9 -38 -32 -69 -45 -60 -7 4 -11 60 -11 154 0
160 1 164 57 181 15 5 57 8 93 7 l65 -2 3 -65z m-3168 -10 c23 -12 44 -72 35
-100 -7 -22 -53 -50 -84 -50 -11 0 -33 12 -50 26 -40 33 -44 94 -9 118 25 18
80 21 108 6z m370 -26 c0 -8 -5 -12 -10 -9 -6 4 -8 11 -5 16 9 14 15 11 15 -7z
m-3362 -137 l114 -54 -110 -11 c-251 -26 -483 -76 -634 -137 -34 -14 -65 -25
-69 -25 -9 0 0 72 12 84 9 11 89 44 244 102 66 25 154 58 195 74 45 18 87 28
105 26 17 -3 81 -29 143 -59z m216 -248 c22 -17 27 -28 24 -58 -2 -30 -9 -39
-39 -55 -64 -35 -129 2 -129 74 0 46 16 59 76 60 27 0 50 -7 68 -21z m4408
-419 l36 -10 4 -68 c2 -41 -1 -72 -8 -79 -8 -8 -52 -13 -120 -15 -108 -3 -109
-3 -112 -28 -2 -14 -8 -29 -13 -34 -5 -6 -9 -16 -9 -23 0 -10 34 -13 148 -14
81 0 140 -3 132 -7 -11 -5 -16 -26 -18 -72 -2 -36 -7 -68 -10 -72 -15 -15
-164 -26 -234 -17 -122 15 -110 -8 -106 221 5 222 2 213 78 223 25 4 50 8 55
11 16 6 137 -4 177 -16z m1523 4 c12 -13 16 -34 14 -96 l-2 -79 -106 3 -106 3
0 80 c0 75 1 80 25 92 38 19 155 17 175 -3z m-3195 -24 c0 -5 -2 -10 -4 -10
-3 0 -8 5 -11 10 -3 6 -1 10 4 10 6 0 11 -4 11 -10z m1185 -347 c3 -32 12 -72
20 -90 29 -65 20 -64 588 -61 554 3 541 2 568 57 6 15 17 51 23 81 9 45 15 56
33 58 30 4 30 3 88 -286 36 -181 46 -248 38 -260 -7 -12 -30 -19 -79 -22 -114
-9 -118 -21 -39 -111 101 -117 143 -238 131 -389 -10 -135 -72 -252 -177 -335
-33 -26 -59 -51 -59 -57 0 -6 33 -46 74 -88 84 -88 115 -137 146 -230 37 -110
17 -288 -44 -393 -63 -107 -180 -186 -306 -206 -38 -6 -239 -11 -483 -11 -517
0 -500 4 -520 -135 -10 -74 -11 -76 -36 -73 l-26 3 0 390 0 390 26 3 c26 3 27
1 34 -60 4 -35 14 -76 22 -91 28 -55 45 -57 482 -57 419 0 522 7 604 42 122
53 161 189 91 319 -35 63 -136 157 -178 164 -17 3 -233 5 -481 3 -401 -3 -453
-5 -481 -20 -36 -20 -50 -51 -59 -130 -6 -56 -7 -58 -36 -58 l-29 0 2 393 3
392 27 3 c25 3 26 1 33 -62 8 -74 33 -121 73 -139 39 -17 818 -16 921 1 93 16
147 39 187 81 59 61 69 174 23 264 -24 46 -95 119 -158 162 l-44 30 -456 0
c-414 0 -459 -2 -488 -17 -34 -19 -47 -50 -58 -135 -7 -58 -15 -68 -45 -58
-20 6 -20 16 -20 394 0 213 3 391 7 394 3 4 17 7 29 7 20 0 23 -6 29 -57z
m-6175 -126 l0 -62 -47 -35 c-147 -109 -206 -282 -152 -443 59 -178 212 -381
395 -527 42 -33 82 -60 90 -60 27 0 14 29 -31 65 -90 75 -260 290 -276 350 -6
22 -22 80 -36 129 -22 74 -25 102 -21 171 6 86 33 163 76 215 l20 25 7 -50 c9
-71 52 -210 85 -275 67 -132 106 -180 313 -378 134 -128 157 -160 197 -266
l28 -76 -57 -32 c-185 -107 -414 11 -656 337 -166 225 -209 329 -209 500 1
185 67 324 207 436 27 22 53 39 58 39 5 0 9 -28 9 -63z m1675 -27 c3 -5 1 -10
-4 -10 -6 0 -11 5 -11 10 0 6 2 10 4 10 3 0 8 -4 11 -10z m4983 -463 l44 -12
1 -75 2 -75 -143 -3 c-134 -2 -142 -4 -142 -22 0 -19 7 -20 143 -20 l142 0 -3
-77 c-3 -43 -9 -81 -15 -85 -34 -21 -276 -19 -318 3 -14 7 -16 32 -15 178 1
93 4 172 8 176 22 22 227 31 296 12z m-9 -918 l49 -10 4 -70 c2 -38 2 -74 0
-79 -2 -6 -63 -10 -148 -10 -94 0 -143 -4 -139 -10 4 -6 62 -10 140 -10 96 0
136 -4 142 -12 6 -11 6 -138 -1 -145 -2 -2 -40 -7 -87 -11 -90 -10 -239 2
-249 19 -4 5 -6 81 -6 167 l1 157 55 12 c71 15 176 16 239 2z m-5254 -674 l0
-40 -96 -6 c-139 -9 -224 -52 -277 -140 -52 -87 -52 -82 -52 -1364 0 -1064 1
-1196 16 -1244 43 -146 132 -211 299 -219 50 -2 96 -9 103 -14 15 -13 16 -60
0 -76 -9 -9 -187 -12 -740 -12 l-728 0 -12 25 c-8 19 -8 31 0 50 11 23 16 25
85 25 175 0 282 76 321 228 14 52 17 216 22 1203 5 823 4 1169 -5 1234 -25
203 -119 289 -330 304 -92 7 -109 18 -97 65 l6 26 743 -2 742 -3 0 -40z m3262
30 c22 -15 40 -59 188 -449 72 -188 74 -200 26 -218 -21 -7 -29 -3 -60 34 -79
94 -242 247 -331 311 -128 91 -311 181 -425 208 -186 44 -332 -1 -398 -125
l-22 -41 0 -1260 0 -1260 23 -58 c53 -130 135 -182 310 -195 l87 -7 3 -31 c2
-18 -3 -36 -11 -42 -11 -9 -199 -11 -748 -10 l-734 3 0 40 0 40 85 7 c193 14
298 100 330 267 6 34 10 487 10 1262 0 1183 0 1209 -20 1262 -37 98 -124 154
-253 164 -202 15 -511 -139 -764 -380 -45 -43 -100 -103 -123 -132 -23 -29
-48 -56 -57 -59 -22 -9 -63 20 -63 44 0 20 196 535 225 590 8 16 23 34 32 39
12 7 462 10 1343 11 1166 0 1328 -2 1347 -15z m-4542 -181 c100 -30 163 -135
139 -231 l-9 -36 -77 1 c-67 1 -78 -2 -79 -16 -1 -9 -5 1 -10 23 -5 22 -11 50
-14 63 -7 31 -41 42 -162 52 -103 9 -130 19 -181 64 -22 19 -62 86 -62 102 0
13 404 -6 455 -22z m1670 16 c18 -29 -51 -207 -101 -261 -22 -23 -31 -25 -82
-23 -31 2 -67 3 -79 4 -30 0 -30 23 3 94 28 61 26 80 -5 52 -13 -12 -49 -19
-122 -26 -57 -5 -112 -12 -122 -16 -19 -7 -40 -43 -50 -84 -6 -25 -8 -26 -79
-22 -83 4 -98 15 -98 71 0 62 21 114 59 151 44 42 92 56 198 59 43 1 80 4 82
7 10 10 390 4 396 -6z m3235 7 c0 -1 9 -27 21 -57 55 -144 76 -209 68 -221 -5
-8 -31 -12 -81 -10 -63 2 -77 6 -99 28 -32 30 -87 156 -96 218 l-6 45 97 0
c53 0 96 -1 96 -3z m-2191 -50 c62 -31 80 -60 87 -137 8 -89 -1 -98 -92 -101
-39 -1 -76 1 -82 5 -7 4 -12 22 -12 41 0 27 -5 34 -25 39 -30 8 -105 -10 -157
-35 -21 -11 -46 -19 -57 -19 -11 0 -21 -5 -23 -10 -5 -16 -43 -20 -188 -21
-148 0 -152 2 -102 54 90 95 293 191 442 210 67 9 164 -4 209 -26z m1269 2
c130 -35 249 -99 340 -183 60 -56 50 -61 -111 -60 -139 1 -144 2 -212 34 -142
66 -225 74 -225 21 0 -48 -17 -57 -102 -53 l-77 4 -7 34 c-36 192 125 275 394
203z m2565 -50 l37 -10 0 -68 c0 -44 -5 -72 -13 -79 -8 -7 -67 -13 -138 -14
l-124 -3 -3 -35 c-1 -19 1 -40 6 -47 5 -8 50 -13 145 -14 l137 -1 -7 -77 c-3
-42 -7 -77 -8 -79 -2 -2 -40 -7 -85 -11 -73 -8 -230 1 -251 14 -9 6 -11 318
-3 377 6 42 15 47 104 58 61 8 145 3 203 -11z m1506 -215 l31 -6 0 -96 0 -95
-85 7 c-46 3 -96 11 -110 18 -24 11 -25 15 -25 95 l0 83 79 0 c43 0 93 -3 110
-6z m-1992 -156 c6 -42 16 -85 22 -97 27 -51 33 -51 573 -51 459 0 506 2 537
18 36 18 54 55 66 134 6 37 37 60 56 41 5 -5 32 -126 61 -270 49 -243 52 -264
37 -279 -15 -14 -78 -16 -635 -18 -578 -1 -621 -2 -652 -19 -40 -22 -57 -60
-67 -145 -8 -68 -15 -78 -45 -62 -20 10 -20 20 -20 415 0 376 1 404 18 408 32
8 37 1 49 -75z m2002 -131 c23 -16 55 -49 72 -74 24 -40 29 -57 29 -113 0 -56
-4 -73 -30 -113 -34 -54 -103 -102 -160 -112 -53 -9 -118 11 -167 51 -127 104
-106 299 40 374 61 31 158 25 216 -13z m-1494 -484 c13 -8 17 -26 19 -86 l2
-77 -138 0 c-137 0 -138 0 -144 -24 -3 -13 -4 -35 -2 -47 3 -24 5 -24 148 -29
80 -3 136 -7 125 -9 -15 -2 -16 -4 -5 -7 13 -4 15 -18 12 -77 -2 -40 -5 -78
-7 -84 -3 -10 -40 -13 -142 -12 -76 1 -151 4 -168 8 l-30 6 -2 212 c-1 131 2
215 8 219 37 23 286 28 324 7z m1510 -5 c2 -13 6 -56 7 -95 l3 -73 -40 -5
c-22 -4 -71 -5 -110 -3 l-70 3 -3 74 c-2 44 1 79 8 85 10 11 116 32 172 35 21
1 29 -4 33 -21z m-2017 -384 c8 -61 16 -82 36 -103 l26 -26 508 -3 c346 -2
519 0 545 8 47 14 63 38 79 120 10 49 17 66 32 68 10 2 22 0 27 -5 5 -5 32
-123 60 -262 61 -300 61 -301 -25 -301 -64 0 -106 -14 -106 -34 0 -9 20 -38
45 -66 106 -120 139 -203 139 -350 0 -127 -19 -195 -75 -279 -55 -82 -129
-137 -234 -174 -19 -7 -206 -13 -500 -17 -417 -4 -473 -7 -501 -22 -36 -20
-51 -51 -60 -131 -6 -55 -8 -58 -33 -55 l-26 3 0 390 0 390 26 3 c25 3 26 1
36 -73 19 -134 16 -133 420 -141 339 -7 558 4 652 32 71 21 134 79 151 139 33
118 -29 247 -166 341 l-56 39 -452 0 c-498 0 -507 -1 -531 -60 -8 -17 -17 -59
-21 -93 -7 -62 -13 -69 -48 -56 -14 5 -16 49 -16 393 0 213 3 391 7 394 3 4
16 7 28 7 20 0 23 -8 33 -76z m-4979 -587 c5 -13 11 -121 12 -241 l4 -218 -77
-1 c-69 -2 -78 0 -84 18 -12 38 -16 398 -5 429 10 25 15 28 44 24 17 -3 43 -2
57 3 38 11 40 11 49 -14z m2685 -8 c11 -55 7 -379 -5 -419 l-12 -38 -76 5
c-42 3 -78 8 -81 10 -3 3 -6 107 -8 232 l-2 228 72 2 c40 1 74 4 77 6 13 14
29 1 35 -26z m-3636 12 c11 -7 13 -53 10 -229 -1 -121 -5 -223 -8 -225 -3 -3
-36 -6 -75 -8 -38 -2 -75 -7 -82 -11 -18 -14 -21 3 -12 57 4 28 8 120 8 206 1
86 4 171 7 188 6 31 7 31 73 31 36 0 72 -4 79 -9z m2665 -51 c5 -30 6 -129 3
-220 -8 -198 -7 -190 -20 -191 -6 0 -40 -1 -76 -2 -63 -2 -65 -1 -77 27 -14
30 -19 379 -7 424 6 22 10 23 88 20 l81 -3 8 -55z m3735 44 l52 -7 0 -72 c0
-87 5 -85 -158 -85 -93 0 -114 -3 -119 -16 -12 -31 16 -39 147 -44 70 -3 130
-7 133 -10 2 -3 2 -36 -2 -75 l-6 -69 -40 -9 c-43 -9 -275 -4 -292 6 -6 4 -10
74 -9 189 l1 183 35 6 c49 9 194 10 258 3z m-3911 -476 c-3 -7 -5 -2 -5 12 0
14 2 19 5 13 2 -7 2 -19 0 -25z m3924 -444 l37 -6 4 -72 c3 -44 0 -74 -6 -78
-6 -4 -71 -8 -143 -8 -126 0 -133 -1 -133 -20 0 -27 -31 -90 -42 -84 -4 3 -8
0 -8 -5 0 -6 -4 -11 -9 -11 -5 0 -8 62 -7 137 l1 138 30 6 c40 9 230 10 276 3z"/>
<path d="M10666 11285 c-14 -14 -16 -52 -16 -284 0 -277 2 -291 42 -291 22 0
724 242 768 265 17 9 30 21 28 27 -2 6 -37 23 -78 38 -315 115 -689 250 -706
255 -14 3 -28 0 -38 -10z"/>
<path d="M7144 10702 c-12 -9 -46 -53 -76 -97 -134 -197 -170 -245 -181 -245
-7 0 -104 63 -217 140 -112 77 -209 140 -216 140 -21 0 -44 -37 -49 -81 -3
-24 -21 -210 -41 -413 -31 -325 -34 -371 -21 -384 20 -19 181 -36 208 -21 28
15 37 44 44 146 13 194 28 313 39 313 6 0 74 -43 152 -95 88 -60 147 -93 157
-90 8 4 49 56 92 116 42 60 78 109 81 109 6 0 73 -143 129 -275 47 -111 62
-135 85 -135 24 0 160 58 182 77 34 30 30 50 -40 195 -38 79 -96 206 -130 283
-80 181 -154 329 -167 332 -5 1 -20 -5 -31 -15z"/>
<path d="M10423 9160 c-457 -43 -639 -286 -432 -575 58 -80 27 -76 514 -75
256 0 445 4 460 10 32 12 68 50 110 115 74 115 85 241 30 331 -89 143 -369
223 -682 194z m-30 -100 c17 0 18 -8 15 -75 -2 -44 1 -77 7 -79 6 -2 -8 -7
-30 -11 -81 -15 -195 -61 -210 -85 -4 -6 1 -20 11 -31 15 -16 31 -19 124 -19
l106 0 -4 -77 c-2 -43 -5 -79 -7 -81 -8 -9 -197 -22 -235 -16 -97 13 -109 39
-105 214 3 131 8 160 31 160 7 0 18 8 23 18 23 43 173 98 236 86 11 -2 28 -4
38 -4z"/>
<path d="M7970 7470 c0 -6 6 -23 14 -38 7 -15 16 -48 20 -74 8 -52 9 -51 -74
-64 -24 -3 -51 -10 -60 -15 -17 -9 -231 -40 -440 -64 -216 -25 -514 -45 -659
-45 l-134 0 5 50 c4 43 3 50 -13 50 -20 0 -24 -17 -34 -135 -7 -85 26 -320 57
-410 49 -142 101 -219 204 -301 68 -54 145 -87 225 -98 70 -10 233 20 299 55
123 65 263 220 376 416 63 108 172 357 188 428 5 25 14 33 54 45 31 10 48 21
50 34 4 17 -18 103 -38 154 -10 22 -40 31 -40 12z"/>
</g>
</svg>
