<?xml version="1.0" encoding="UTF-8" standalone="no"?>
<!DOCTYPE svg PUBLIC "-//W3C//DTD SVG 20010904//EN"
              "http://www.w3.org/TR/2001/REC-SVG-20010904/DTD/svg10.dtd">

<svg xmlns="http://www.w3.org/2000/svg"
     width="2.84667in" height="2.48667in"
     viewBox="0 0 854 746">
  <path id="選択範囲"
        fill="#000" stroke="black" stroke-width="1"
        d="M 840.00,11.00
           C 840.00,11.00 819.00,28.87 819.00,28.87
             819.00,28.87 781.00,61.72 781.00,61.72
             781.00,61.72 684.00,145.42 684.00,145.42
             684.00,145.42 642.00,181.58 642.00,181.58
             639.49,183.72 628.63,193.89 626.32,194.25
             623.86,194.64 620.78,189.73 619.40,188.00
             619.40,188.00 602.99,169.00 602.99,169.00
             580.44,145.89 557.52,128.82 529.00,113.78
             516.57,107.22 503.31,102.10 490.00,97.67
             399.03,67.34 297.51,86.75 224.00,148.44
             165.81,197.27 126.36,274.44 125.84,351.00
             125.84,351.00 125.84,359.00 125.84,359.00
             125.84,359.00 125.84,369.00 125.84,369.00
             126.35,399.80 132.27,426.97 142.34,456.00
             151.39,482.07 167.64,510.46 184.80,532.00
             184.80,532.00 200.09,550.00 200.09,550.00
             201.85,551.92 205.63,554.98 204.80,557.91
             204.11,560.35 193.51,568.71 191.00,570.87
             191.00,570.87 155.00,601.95 155.00,601.95
             155.00,601.95 58.00,685.72 58.00,685.72
             58.00,685.72 29.00,710.73 29.00,710.73
             23.79,715.19 15.11,722.02 11.00,727.00
             11.00,727.00 841.00,727.00 841.00,727.00
             841.00,727.00 841.00,221.00 841.00,221.00
             841.00,221.00 841.00,74.00 841.00,74.00
             841.00,74.00 841.00,31.00 841.00,31.00
             841.00,31.00 840.00,11.00 840.00,11.00 Z
           M 822.00,53.00
           C 822.00,53.00 822.00,708.00 822.00,708.00
             822.00,708.00 63.00,708.00 63.00,708.00
             63.00,708.00 83.00,689.58 83.00,689.58
             83.00,689.58 114.00,662.85 114.00,662.85
             114.00,662.85 230.00,562.73 230.00,562.73
             230.00,562.73 381.00,432.28 381.00,432.28
             381.00,432.28 573.00,266.72 573.00,266.72
             573.00,266.72 741.00,121.72 741.00,121.72
             741.00,121.72 793.00,76.85 793.00,76.85
             793.00,76.85 822.00,53.00 822.00,53.00 Z
           M 384.00,103.14
           C 384.00,103.14 389.00,103.14 389.00,103.14
             410.52,102.75 424.53,102.83 446.00,106.43
             490.19,113.85 531.15,133.27 566.00,161.20
             579.00,171.62 589.69,182.05 600.20,195.00
             602.47,197.80 609.61,205.48 609.10,208.99
             608.71,211.70 604.98,214.41 603.00,216.13
             603.00,216.13 587.00,230.00 587.00,230.00
             587.00,230.00 523.00,285.15 523.00,285.15
             523.00,285.15 305.00,473.28 305.00,473.28
             305.00,473.28 246.00,524.27 246.00,524.27
             246.00,524.27 231.00,537.15 231.00,537.15
             229.08,538.84 225.53,542.44 223.00,542.83
             219.05,543.44 214.86,537.65 212.58,535.00
             212.58,535.00 191.72,509.00 191.72,509.00
             168.65,476.13 153.46,437.68 147.58,398.00
             147.58,398.00 145.00,374.00 145.00,374.00
             144.70,347.77 145.47,325.72 151.89,300.00
             171.27,222.49 222.16,159.75 295.00,126.31
             314.55,117.33 338.72,109.56 360.00,106.27
             360.00,106.27 384.00,103.14 384.00,103.14 Z" />
</svg>
